<!-- Generator: Adobe Illustrator 19.0.1, SVG Export Plug-In  -->
<svg version="1.1"
	 xmlns="http://www.w3.org/2000/svg" xmlns:xlink="http://www.w3.org/1999/xlink" xmlns:a="http://ns.adobe.com/AdobeSVGViewerExtensions/3.0/"
	 x="0px" y="0px" width="612.001px" height="464.268px" viewBox="0 0 612.001 464.268"
	 style="enable-background:new 0 0 612.001 464.268;" xml:space="preserve">
<style type="text/css">
	.st0{fill:#C9C9C9;}
</style>
<defs>
</defs>
<g>
	<path class="st0" d="M604.131,366.304h-19.12V259.371c0-12.512-3.776-24.787-10.78-35.173l-47.92-70.975
		c-11.725-17.311-31.238-27.698-52.169-27.698h-74.28c-8.734,0-15.737,7.082-15.737,15.738v225.043h-121.65
		c11.567,9.992,19.514,23.92,21.796,39.658H412.53c4.563-31.238,31.475-55.396,63.972-55.396c32.498,0,59.33,24.158,63.895,55.396
		h63.735c4.328,0,7.869-3.541,7.869-7.869v-23.921C612,369.847,608.46,366.304,604.131,366.304z M525.76,238.361h-98.044
		c-4.327,0-7.868-3.463-7.868-7.869V176.12c0-4.328,3.541-7.869,7.868-7.869h59.724c2.597,0,4.957,1.259,6.452,3.305l38.32,54.451
		C535.831,231.201,532.133,238.361,525.76,238.361z M476.502,366.304c-27.068,0-48.943,21.953-48.943,49.021
		c0,26.99,21.875,48.943,48.943,48.943c26.989,0,48.943-21.953,48.943-48.943C525.445,388.259,503.491,366.304,476.502,366.304z
		 M476.502,439.799c-13.535,0-24.472-11.016-24.472-24.471c0-13.535,10.937-24.473,24.472-24.473
		c13.533,0,24.472,10.938,24.472,24.473C500.974,428.783,490.036,439.799,476.502,439.799z M68.434,366.304
		c-4.328,0-7.869,3.543-7.869,7.869v23.922c0,4.328,3.541,7.869,7.869,7.869h87.971c2.282-15.738,10.229-29.666,21.718-39.658
		H68.434V366.304z M220.298,366.304c-26.989,0-48.943,21.953-48.943,49.021c0,26.99,21.954,48.943,48.943,48.943
		c27.068,0,48.943-21.953,48.943-48.943C269.242,388.259,247.367,366.304,220.298,366.304z M220.298,439.799
		c-13.534,0-24.471-11.016-24.471-24.471c0-13.535,10.937-24.473,24.471-24.473c13.534,0,24.472,10.938,24.472,24.473
		C244.77,428.783,233.832,439.799,220.298,439.799z M338.014,76.739h-91.198c4.485,13.298,6.846,27.54,6.846,42.255
		c0,74.28-60.431,134.711-134.711,134.711c-13.535,0-26.675-2.045-39.029-5.744v86.949c0,4.328,3.541,7.869,7.869,7.869h265.96
		c4.329,0,7.869-3.541,7.869-7.869V100.345C361.619,87.283,351.075,76.739,338.014,76.739z M118.969,0C53.264,0,0,53.263,0,118.968
		s53.264,118.969,118.969,118.969s118.97-53.264,118.97-118.969S184.674,0,118.969,0z M118.969,210.864
		c-50.752,0-91.896-41.143-91.896-91.896s41.144-91.896,91.896-91.896c50.753,0,91.896,41.144,91.896,91.896
		C210.865,169.721,169.722,210.864,118.969,210.864z M154.066,138.376c-1.014,0-2.052-0.131-3.082-0.407l-38.343-10.335
		c-5.148-1.391-8.729-6.062-8.729-11.396V57.223c0-6.516,5.287-11.803,11.803-11.803s11.803,5.287,11.803,11.803v49.971
		l29.614,7.983c6.294,1.698,10.02,8.177,8.322,14.469C164.033,134.91,159.269,138.376,154.066,138.376z"/>
</g>
</svg>